<svg xmlns="http://www.w3.org/2000/svg" width="21.896" height="24.14" viewBox="0 0 21.896 24.14">
  <g>
    <path d="M11.925,0,7.017,4.1,11.925,8V6.3a6.988,6.988,0,0,1,.033,13.829v4.009a10.969,10.969,0,0,0-.033-21.844Z"/>
    <path d="M6.745,18.816,3.91,21.65a10.856,10.856,0,0,0,6.048,2.49v-4A6.911,6.911,0,0,1,6.745,18.816Z"/>
    <path d="M5.33,17.4a6.92,6.92,0,0,1-1.325-3.213H0a10.868,10.868,0,0,0,2.5,6.047Z"/>
    <path d="M5.352,8.994,2.527,6.17A10.891,10.891,0,0,0,0,12.19H4.012A6.943,6.943,0,0,1,5.352,8.994Z"/>
  </g>
</svg>
