<?xml version="1.0" standalone="no"?>
<!DOCTYPE svg PUBLIC "-//W3C//DTD SVG 20010904//EN"
 "http://www.w3.org/TR/2001/REC-SVG-20010904/DTD/svg10.dtd">
<svg version="1.0" xmlns="http://www.w3.org/2000/svg"
 width="980.000000pt" height="984.000000pt" viewBox="0 0 980.000000 984.000000"
 preserveAspectRatio="xMidYMid meet">

<g transform="translate(0.000000,984.000000) scale(0.100000,-0.100000)"
fill="#000000" stroke="none">
<path d="M4865 9833 c-89 -20 -141 -58 -178 -127 l-22 -41 -5 -2794 -5 -2795
-603 625 c-379 394 -616 632 -638 643 -118 56 -256 9 -316 -108 -29 -55 -29
-146 -1 -201 30 -58 1640 -1724 1694 -1752 58 -31 148 -31 209 0 64 31 1672
1702 1696 1761 81 199 -125 394 -319 302 -24 -12 -241 -230 -640 -644 l-602
-626 -5 2800 c-5 2718 -6 2801 -24 2829 -30 48 -68 85 -106 105 -38 19 -104
31 -135 23z"/>
<path d="M780 8870 c-234 -50 -447 -187 -590 -380 -61 -82 -130 -226 -162
-335 l-23 -80 -3 -3570 c-2 -2618 0 -3591 8 -3650 56 -388 333 -705 715 -817
l80 -23 4063 -3 c3942 -2 4066 -2 4155 17 366 74 655 362 755 749 16 63 17
285 17 3672 l0 3605 -23 90 c-28 110 -103 267 -170 355 -130 171 -324 302
-539 363 l-78 22 -1115 3 c-1004 2 -1119 1 -1157 -13 -56 -22 -126 -100 -143
-160 -37 -133 47 -276 181 -304 34 -8 389 -11 1092 -11 1139 0 1100 2 1211
-58 114 -61 218 -201 245 -330 15 -71 16 -7034 1 -7113 -32 -173 -185 -338
-357 -385 -66 -18 -192 -19 -4043 -19 -4195 0 -4013 -2 -4110 43 -95 43 -192
133 -239 222 -66 124 -61 -181 -61 3687 0 2519 3 3527 11 3565 27 129 132 270
245 330 112 60 71 58 1229 58 1204 0 1131 -5 1214 78 111 111 89 295 -43 377
l-49 30 -1116 2 c-1047 2 -1121 1 -1201 -17z"/>
<path d="M2899 2307 c-90 -48 -140 -155 -118 -256 14 -67 55 -120 120 -156
l54 -30 1905 0 c2097 0 1931 -5 2008 60 104 87 104 263 0 350 -69 59 64 55
-2011 55 l-1914 0 -44 -23z"/>
</g>
</svg>
