<svg xmlns="http://www.w3.org/2000/svg" viewBox="0 0 32 32"><title>62-Box-Arrow Down</title><g id="_62-Box-Arrow_Down" data-name="62-Box-Arrow Down"><path d="M29,0H3A3,3,0,0,0,0,3V29a3,3,0,0,0,3,3H21V30H3a1,1,0,0,1-1-1V3A1,1,0,0,1,3,2h8V13a1,1,0,0,0,1,1h8a1,1,0,0,0,1-1V2h8a1,1,0,0,1,1,1V15h2V3A3,3,0,0,0,29,0ZM19,9H13V2h6Z"/><path d="M6,21a1,1,0,0,0-1,1v4a1,1,0,0,0,1,1h4a1,1,0,0,0,1-1V22a1,1,0,0,0-1-1Zm3,4H7V23H9Z"/><rect x="13" y="21" width="6" height="2"/><rect x="13" y="25" width="4" height="2"/><path d="M28,26.59V17H26v9.59l-2.29-2.29-1.41,1.41,4,4a1,1,0,0,0,1.41,0l4-4-1.41-1.41Z"/></g></svg>